<svg width="137" height="46" viewBox="0 0 137 46" fill="none" xmlns="http://www.w3.org/2000/svg">
<rect width="50" height="45.9677" rx="12.9032" fill="#013DFE"/>
<path d="M16.1031 30.0977H13.258V16.5493H15.8902L21.6386 25.0848V16.5493H24.5031V30.0977H21.8515L16.1031 21.5622V30.0977ZM26.0359 30.0977V16.5493H31.1843C34.3198 16.5493 36.1392 17.8654 36.1392 20.1299C36.1392 21.8331 35.1327 22.8009 33.5843 23.1299C35.3843 23.3622 36.623 24.3106 36.623 26.246C36.623 28.6073 34.765 30.0977 31.4359 30.0977H26.0359ZM31.2618 18.8331H28.9392V22.1235H31.2618C32.5005 22.1235 33.2359 21.4848 33.2359 20.4783C33.2359 19.4718 32.5198 18.8331 31.2618 18.8331ZM31.4553 24.3686H28.9392V27.7944H31.4553C32.8488 27.7944 33.6424 27.1557 33.6424 26.1106C33.6424 25.0073 32.8295 24.3686 31.4553 24.3686Z" fill="white"/>
<path d="M69.76 12.6839H72.52V29.4839H70.36L62.44 18.0839V29.4839H59.68V12.6839H61.84L69.76 24.0839V12.6839ZM76.7873 24.5879C76.9793 25.4999 77.4193 26.2039 78.1073 26.6999C78.7953 27.1799 79.6353 27.4199 80.6273 27.4199C82.0033 27.4199 83.0353 26.9239 83.7233 25.9319L85.8593 27.1799C84.6753 28.9239 82.9233 29.7959 80.6033 29.7959C78.6513 29.7959 77.0753 29.2039 75.8753 28.0199C74.6753 26.8199 74.0753 25.3079 74.0753 23.4839C74.0753 21.6919 74.6673 20.1959 75.8513 18.9959C77.0353 17.7799 78.5553 17.1719 80.4113 17.1719C82.1713 17.1719 83.6113 17.7879 84.7313 19.0199C85.8673 20.2519 86.4353 21.7479 86.4353 23.5079C86.4353 23.7799 86.4033 24.1399 86.3393 24.5879H76.7873ZM76.7633 22.4759H83.8193C83.6433 21.4999 83.2353 20.7639 82.5953 20.2679C81.9713 19.7719 81.2353 19.5239 80.3873 19.5239C79.4273 19.5239 78.6273 19.7879 77.9873 20.3159C77.3473 20.8439 76.9393 21.5639 76.7633 22.4759ZM101.111 17.4839H103.847L100.079 29.4839H97.5353L95.0393 21.3959L92.5193 29.4839H89.9753L86.2073 17.4839H88.9433L91.2713 25.7639L93.7913 17.4839H96.2633L98.7593 25.7639L101.111 17.4839ZM111.588 17.1719C113.236 17.1719 114.644 17.7799 115.812 18.9959C116.98 20.2119 117.564 21.7079 117.564 23.4839C117.564 25.2439 116.98 26.7399 115.812 27.9719C114.644 29.1879 113.236 29.7959 111.588 29.7959C109.764 29.7959 108.364 29.1159 107.388 27.7559V29.4839H104.796V12.6839H107.388V19.1879C108.364 17.8439 109.764 17.1719 111.588 17.1719ZM108.468 26.2439C109.188 26.9639 110.092 27.3239 111.18 27.3239C112.268 27.3239 113.172 26.9639 113.892 26.2439C114.612 25.5079 114.972 24.5879 114.972 23.4839C114.972 22.3799 114.612 21.4679 113.892 20.7479C113.172 20.0119 112.268 19.6439 111.18 19.6439C110.092 19.6439 109.188 20.0119 108.468 20.7479C107.748 21.4679 107.388 22.3799 107.388 23.4839C107.388 24.5879 107.748 25.5079 108.468 26.2439ZM121.401 15.2039C121.081 15.5239 120.697 15.6839 120.249 15.6839C119.801 15.6839 119.409 15.5239 119.073 15.2039C118.753 14.8679 118.593 14.4759 118.593 14.0279C118.593 13.5799 118.753 13.1959 119.073 12.8759C119.393 12.5399 119.785 12.3719 120.249 12.3719C120.713 12.3719 121.105 12.5399 121.425 12.8759C121.745 13.1959 121.905 13.5799 121.905 14.0279C121.905 14.4759 121.737 14.8679 121.401 15.2039ZM118.953 29.4839V17.4839H121.545V29.4839H118.953ZM125.635 24.5879C125.827 25.4999 126.267 26.2039 126.955 26.6999C127.643 27.1799 128.483 27.4199 129.475 27.4199C130.851 27.4199 131.883 26.9239 132.571 25.9319L134.707 27.1799C133.523 28.9239 131.771 29.7959 129.451 29.7959C127.499 29.7959 125.923 29.2039 124.723 28.0199C123.523 26.8199 122.923 25.3079 122.923 23.4839C122.923 21.6919 123.515 20.1959 124.699 18.9959C125.883 17.7799 127.403 17.1719 129.259 17.1719C131.019 17.1719 132.459 17.7879 133.579 19.0199C134.715 20.2519 135.283 21.7479 135.283 23.5079C135.283 23.7799 135.251 24.1399 135.187 24.5879H125.635ZM125.611 22.4759H132.667C132.491 21.4999 132.083 20.7639 131.443 20.2679C130.819 19.7719 130.083 19.5239 129.235 19.5239C128.275 19.5239 127.475 19.7879 126.835 20.3159C126.195 20.8439 125.787 21.5639 125.611 22.4759Z" fill="#013DFE"/>
</svg>
